<?xml version="1.0" standalone="no"?>
<!DOCTYPE svg PUBLIC "-//W3C//DTD SVG 20010904//EN"
 "http://www.w3.org/TR/2001/REC-SVG-20010904/DTD/svg10.dtd">
<svg version="1.0" xmlns="http://www.w3.org/2000/svg"
 width="500.000000pt" height="500.000000pt" viewBox="0 0 500.000000 500.000000"
 preserveAspectRatio="xMidYMid meet">
<metadata>
Created by potrace 1.14, written by Peter Selinger 2001-2017
</metadata>
<g transform="translate(0.000000,500.000000) scale(0.100000,-0.100000)"
fill="#000000" stroke="none">
<path d="M1250 4170 l0 -210 70 -121 c39 -67 70 -125 70 -130 0 -5 4 -9 9 -9
5 0 13 -10 17 -22 3 -13 14 -34 24 -48 10 -14 32 -52 49 -85 18 -33 55 -98 82
-145 28 -47 63 -107 78 -135 16 -27 42 -74 60 -103 17 -29 31 -54 31 -56 0 -2
17 -33 38 -67 22 -35 51 -86 66 -114 16 -27 63 -110 106 -185 43 -74 86 -151
97 -170 11 -19 98 -170 193 -335 95 -165 184 -320 198 -345 14 -25 51 -90 82
-145 32 -55 67 -116 78 -135 11 -19 54 -96 97 -170 43 -74 91 -160 108 -190
16 -30 36 -62 43 -71 8 -8 14 -18 14 -21 0 -3 50 -93 111 -199 129 -223 182
-318 185 -326 0 -2 26 2 58 8 134 25 300 97 412 180 74 54 182 157 189 178 4
12 -46 108 -146 282 -83 145 -160 280 -171 299 -10 19 -23 42 -28 50 -24 39
-105 180 -191 330 -52 91 -99 174 -106 185 -7 11 -15 26 -19 34 -4 8 -45 80
-92 160 -46 80 -97 169 -112 196 -15 28 -71 124 -123 215 -52 91 -105 184
-118 207 -13 22 -202 352 -419 732 l-395 690 -322 1 -323 0 0 -210z"/>
<path d="M2907 4349 c21 -35 599 -1017 725 -1234 39 -66 81 -137 94 -157 13
-21 24 -40 24 -42 0 -4 97 -165 105 -174 6 -6 94 136 120 193 31 68 63 176 73
250 9 65 9 276 -1 340 -38 265 -192 507 -427 671 -99 69 -279 144 -380 159
-24 4 -48 9 -52 11 -4 3 -74 8 -155 11 l-146 6 20 -34z"/>
<path d="M1250 1566 l0 -936 586 0 586 0 -14 22 c-8 13 -181 289 -383 613
-202 325 -378 606 -390 625 -71 108 -365 584 -365 591 0 4 -4 11 -10 14 -7 4
-10 -308 -10 -929z"/>
</g>
</svg>
