<?xml version="1.0" standalone="no"?>
<!DOCTYPE svg PUBLIC "-//W3C//DTD SVG 20010904//EN"
 "http://www.w3.org/TR/2001/REC-SVG-20010904/DTD/svg10.dtd">
<svg version="1.0" xmlns="http://www.w3.org/2000/svg"
 width="512.000000pt" height="512.000000pt" viewBox="0 0 512.000000 512.000000"
 preserveAspectRatio="xMidYMid meet">
<metadata>
Created by potrace 1.11, written by Peter Selinger 2001-2013
</metadata>
<g transform="translate(0.000000,512.000000) scale(0.150000,-0.130000)"
fill="#000000" stroke="none">
<path d="M1600 3695 l0 -145 671 -1152 c369 -634 674 -1156 678 -1160 10 -11
152 30 226 66 74 34 174 109 219 163 l26 31 -682 1171 -683 1171 -227 0 -228
0 0 -145z"/>
<path d="M2687 3809 c11 -19 166 -283 343 -587 l323 -553 32 45 c134 189 150
486 38 723 -80 171 -271 325 -468 378 -33 8 -111 18 -174 22 l-115 6 21 -34z"/>
<path d="M1600 1857 l0 -637 370 0 371 0 -12 23 c-15 27 -720 1240 -725 1246
-2 2 -4 -282 -4 -632z"/>
</g>
</svg>
