<svg width="240" height="581" viewBox="0 0 240 581" xmlns="http://www.w3.org/2000/svg" xmlns:xlink="http://www.w3.org/1999/xlink">
  <defs>
    <path id="a" d="M0 0h240v581H0z"/>
  </defs>
  <g fill="none" fill-rule="evenodd">
    <g>
      <mask id="b" fill="#fff">
        <use xlink:href="#a"/>
      </mask>
      <use fill="#FFF" xlink:href="#a"/>
      <path d="M-542 520.076L-506.844596 581h-35.155238L-542 520.076zm0-415.925L-266.844596 581h-118.552239L-542 310.684V104.151zM-360.098 0l335.2534037 581H-145.396835L-481.990284 0H-360.098zm480 0l335.253404 581H336.603165L.0097164 0H119.902zm242 0l335.253404 581H576.603165L240.009716 0H361.902zm240 0L898 513.144l.000166 67.856h-79.397001L482.009716 0H601.902zm240 0L898 97.22v206.561L722.009716 0H841.902zM215.155404 581H96.6031653L-239.990284 0H-120.098l335.253404 581z" fill="#000" mask="url(#b)"/>
    </g>
  </g>
</svg>
