<svg width="34" height="14" viewBox="0 0 34 14" xmlns="http://www.w3.org/2000/svg">
  <path d="M26.275203.5457627c-.301416.2935048-.30783.7757837-.014325 1.0772a.761774.761774 0 00.014325.0143254l4.727478 4.6033899H.759322C.3399601 6.240678 0 6.580638 0 7c0 .419362.3399601.759322.759322.759322h30.243359l-4.727478 4.6033899c-.301416.2935047-.30783.7757836-.014325 1.0772a.7617468.7617468 0 00.014325.0143254c.311924.303736.809025.303736 1.120949 0l6.067742-5.9084746L34 7l-.536106-.5457627L27.396152.5457627c-.311924-.303736-.809025-.303736-1.120949 0z" fill="#191919" fill-rule="evenodd"/>
</svg>
