<svg width="22px" height="10px" viewBox="0 0 22 10" version="1.1" xmlns="http://www.w3.org/2000/svg" xmlns:xlink="http://www.w3.org/1999/xlink">
    <g id="🛠-Symbols" stroke="none" stroke-width="1" fill="none" fill-rule="evenodd">
        <g id="Navigation-/-#6" transform="translate(-83.000000, -7.000000)">
            <g id="Icons/Arrow-14px/Right-long" fill="currentColor" transform="translate(84.000000, 6.000000)">
                <path d="M15.2922834,1.79375416 L15.2280921,1.86617041 C14.9486194,2.21784131 14.9686041,2.73474564 15.2880315,3.06278422 L17.2717647,5.1 L0.441176471,5.1 C-0.0461336028,5.1 -0.441176471,5.50294373 -0.441176471,6 L-0.437137307,6.08667601 C-0.394381575,6.54306715 -0.0174683044,6.9 0.441176471,6.9 L17.27,6.9 L15.2879115,8.93721699 C14.9472692,9.28717782 14.9472996,9.85193297 15.2879794,10.2018557 L15.3542438,10.2633722 C15.6969888,10.5504876 16.2033519,10.5306085 16.5257133,10.2040542 L19.3394118,7.3134 L19.3424554,7.3171021 L20.6217557,6.00309319 L16.5278774,1.79814426 C16.1878661,1.44890811 15.6346718,1.44694259 15.2922834,1.79375416 Z" id="Right-long"></path>
            </g>
        </g>
    </g>
</svg>
