<svg width="34" height="14" viewBox="0 0 34 14" xmlns="http://www.w3.org/2000/svg">
  <path d="M7.7247967.5457627c.3014164.2935048.3078301.7757837.0143253 1.0772a.76179.76179 0 01-.0143253.0143254L2.9973186 6.240678H33.240678C33.66004 6.240678 34 6.580638 34 7c0 .419362-.33996.759322-.759322.759322H2.9973186l4.7274781 4.6033899c.3014164.2935047.3078301.7757836.0143253 1.0772a.7617627.7617627 0 01-.0143253.0143254c-.3119235.303736-.809025.303736-1.1209484 0L.5361058 7.5457627 0 7l.5361058-.5457627L6.6038483.5457627c.3119234-.303736.8090249-.303736 1.1209484 0z" fill="#191919" fill-rule="evenodd"/>
</svg>
