<svg width="21" height="16" viewBox="0 0 21 16" xmlns="http://www.w3.org/2000/svg">
  <path d="M12.5217391 1.5253867c-.2887276.290746-.2887078.7600075.0000442 1.0507293L17.164 7.25h0H1.75c-.4142136 0-.75.3357864-.75.75s.3357864.75.75.75h15.412l-4.6403184 4.6737829c-.288712.2907941-.2886863.760068.0000575 1.0508305.286144.2881444.7516967.2897661 1.0398411.0036221a.734967.734967 0 00.0036296-.0036297L18.952 9.05h0l.0045217.0059286L20 8.0051553l-6.4347826-6.4797687c-.2861481-.2881485-.7517075-.2897702-1.0398561-.0036221a.7358719.7358719 0 00-.0036222.0036222z" fill="currentColor" stroke="currentColor" fill-rule="evenodd"/>
</svg>
