<svg height="38px" viewBox="0 0 135 38" version="1.1" xmlns="http://www.w3.org/2000/svg" xmlns:xlink="http://www.w3.org/1999/xlink">
    <defs>
        <path d="M0,77.6964249 C247.59548,47.5807233 488.474178,46.1704747 722.636095,73.4656791 C956.798012,100.760884 1195.91931,102.171132 1440,77.6964249 L1440,371 L0,371 L0,77.6964249 Z" id="path-1"></path>
    </defs>
    <g id="Landing-2020" stroke="none" stroke-width="1" fill="none" fill-rule="evenodd">
        <g id="00---Top" transform="translate(-151.000000, -45.000000)">
            <g id="Waves" transform="translate(722.000000, 185.500000) scale(1, -1) translate(-722.000000, -185.500000) ">
                <mask id="mask-2" fill="white">
                    <use xlink:href="#path-1"></use>
                </mask>
            </g>
            <g id="Top" transform="translate(150.000000, 44.000000)">
                <g id="Logo" transform="translate(4.506579, 4.545455)">
                    <path d="M38.6988947,25.3236364 C39.2180526,25.3236364 39.8093158,25.2363636 40.4726842,25.0618182 C41.1360526,24.8872727 41.7561579,24.64 42.333,24.32 C42.9098421,24 43.4001579,23.6218182 43.8039474,23.1854545 C44.2077368,22.7490909 44.4096316,22.2787879 44.4096316,21.7745455 C44.4096316,21.3090909 44.246193,20.9454545 43.9193158,20.6836364 C43.5924386,20.4218182 43.2078772,20.2909091 42.7656316,20.2909091 C42.4387544,20.2909091 42.1551404,20.3830303 41.9147895,20.5672727 C41.6744386,20.7515152 41.4148596,20.9551515 41.1360526,21.1781818 C40.8572456,21.4012121 40.5303684,21.6048485 40.1554211,21.7890909 C39.7804737,21.9733333 39.2949649,22.0654545 38.6988947,22.0654545 C38.3335614,22.0654545 37.9778421,22.0218182 37.6317368,21.9345455 C37.2856316,21.8472727 36.9683684,21.7115152 36.6799474,21.5272727 C36.3915263,21.3430303 36.1511754,21.1054545 35.9588947,20.8145455 C35.766614,20.5236364 35.6416316,20.1745455 35.5839474,19.7672727 L35.5839474,19.7672727 L43.2847895,19.7381818 C43.8231754,19.7381818 44.246193,19.5927273 44.5538421,19.3018182 C44.8614912,19.0109091 45.0153158,18.6424242 45.0153158,18.1963636 C45.0153158,17.8860606 44.9432105,17.5369697 44.799,17.1490909 C44.6547895,16.7612121 44.4769298,16.3781818 44.2654211,16 C44.0539123,15.6218182 43.8135614,15.2630303 43.5443684,14.9236364 C43.2751754,14.5842424 43.0252105,14.3078788 42.7944737,14.0945455 C42.2753158,13.609697 41.6648246,13.2363636 40.963,12.9745455 C40.2611754,12.7127273 39.5064737,12.5818182 38.6988947,12.5818182 C37.7951754,12.5818182 36.9491404,12.7515152 36.1607895,13.0909091 C35.3724386,13.430303 34.6898421,13.8909091 34.113,14.4727273 C33.5361579,15.0545455 33.0842982,15.7430303 32.7574211,16.5381818 C32.4305439,17.3333333 32.2671053,18.1769697 32.2671053,19.0690909 C32.2671053,19.9806061 32.4353509,20.8193939 32.7718421,21.5854545 C33.1083333,22.3515152 33.565,23.0109091 34.1418421,23.5636364 C34.7186842,24.1163636 35.3964737,24.5478788 36.1752105,24.8581818 C36.9539474,25.1684848 37.7951754,25.3236364 38.6988947,25.3236364 Z M41.5831053,17.3818182 L35.5839474,17.3818182 C35.6416316,17.2072727 35.761807,17.0133333 35.9444737,16.8 C36.1271404,16.5866667 36.3578772,16.3927273 36.6366842,16.2181818 C36.9154912,16.0436364 37.2279474,15.8933333 37.5740526,15.7672727 C37.9201579,15.6412121 38.2951053,15.5781818 38.6988947,15.5781818 C39.1026842,15.5781818 39.4776316,15.6412121 39.8237368,15.7672727 C40.1698421,15.8933333 40.4630702,16.0436364 40.7034211,16.2181818 C40.9437719,16.3927273 41.1408596,16.5866667 41.2946842,16.8 C41.4485088,17.0133333 41.5446491,17.2072727 41.5831053,17.3818182 L41.5831053,17.3818182 Z M53.9455526,25.3236364 C54.5416228,25.3236364 55.161728,25.2315152 55.8058684,25.0472727 C56.4500087,24.8630303 57.0364649,24.6060606 57.5652368,24.2763636 C58.0940087,23.9466667 58.5266403,23.5636364 58.8631315,23.1272727 C59.1996228,22.6909091 59.3678684,22.2206061 59.3678684,21.7163636 C59.3678684,21.3866667 59.1996228,21.0666667 58.8631315,20.7563636 C58.5266403,20.4460606 58.1276579,20.2909091 57.6661842,20.2909091 C57.2816228,20.2909091 56.9739736,20.3830303 56.7432368,20.5672727 C56.5125,20.7515152 56.2721491,20.9551515 56.0221842,21.1781818 C55.7722193,21.4012121 55.4934122,21.6048485 55.1857631,21.7890909 C54.878114,21.9733333 54.4647105,22.0654545 53.9455526,22.0654545 C53.503307,22.0654545 53.0899035,21.9781818 52.7053421,21.8036364 C52.3207807,21.6290909 51.9842894,21.3963636 51.6958684,21.1054545 C51.4074473,20.8145455 51.1767105,20.4751515 51.0036579,20.0872727 C50.8306052,19.6993939 50.7440789,19.2824242 50.7440789,18.8363636 C50.7440789,18.409697 50.8306052,17.9975758 51.0036579,17.6 C51.1767105,17.2024242 51.4074473,16.8533333 51.6958684,16.5527273 C51.9842894,16.2521212 52.3207807,16.0145455 52.7053421,15.84 C53.0899035,15.6654545 53.503307,15.5781818 53.9455526,15.5781818 C54.4647105,15.5781818 54.878114,15.6509091 55.1857631,15.7963636 C55.4934122,15.9418182 55.7577982,16.1018182 55.978921,16.2763636 C56.2000438,16.4509091 56.4067456,16.6109091 56.5990263,16.7563636 C56.791307,16.9018182 57.0316579,16.9745455 57.3200789,16.9745455 C57.7623245,16.9745455 58.1516929,16.8145455 58.4881842,16.4945455 C58.8246754,16.1745455 58.992921,15.7915152 58.992921,15.3454545 C58.992921,14.8993939 58.8294824,14.4921212 58.5026052,14.1236364 C58.175728,13.7551515 57.7575175,13.44 57.2479736,13.1781818 C56.7384298,12.9163636 56.1904298,12.7127273 55.6039736,12.5672727 C55.0175175,12.4218182 54.4647105,12.3490909 53.9455526,12.3490909 C53.0418333,12.3490909 52.2006052,12.5139394 51.4218684,12.8436364 C50.6431315,13.1733333 49.9653421,13.6290909 49.3885,14.2109091 C48.8116579,14.7927273 48.3549912,15.4763636 48.0185,16.2618182 C47.6820087,17.0472727 47.5137631,17.9054545 47.5137631,18.8363636 C47.5137631,19.7478788 47.6820087,20.5963636 48.0185,21.3818182 C48.3549912,22.1672727 48.8116579,22.8509091 49.3885,23.4327273 C49.9653421,24.0145455 50.6431315,24.4751515 51.4218684,24.8145455 C52.2006052,25.1539394 53.0418333,25.3236364 53.9455526,25.3236364 Z M63.8275789,25.0909091 C64.9043508,25.0909091 65.4427368,24.5478788 65.4427368,23.4618182 L65.4427368,23.4618182 L65.4427368,17.6436364 C65.4427368,17.0812121 65.6302104,16.5963636 66.0051578,16.1890909 C66.3801052,15.7818182 66.8656139,15.5781818 67.4616841,15.5781818 C67.692421,15.5781818 67.8895087,15.6315152 68.0529473,15.7381818 C68.2163859,15.8448485 68.3798245,15.9563636 68.5432631,16.0727273 C68.7067017,16.1890909 68.8797543,16.3006061 69.062421,16.4072727 C69.2450876,16.5139394 69.4517894,16.5672727 69.6825262,16.5672727 C70.1247718,16.5672727 70.5141403,16.3878788 70.8506315,16.0290909 C71.1871227,15.670303 71.3553683,15.2775758 71.3553683,14.8509091 C71.3553683,14.4630303 71.2448069,14.1139394 71.0236841,13.8036364 C70.8025613,13.4933333 70.5237543,13.2315152 70.1872631,13.0181818 C69.8507718,12.8048485 69.4902455,12.64 69.1056841,12.5236364 C68.7211227,12.4072727 68.3654034,12.3490909 68.0385262,12.3490909 C66.615649,12.3490909 65.6157894,12.6981818 65.0389473,13.3963636 C64.9428069,13.2024242 64.7889824,13.0424242 64.5774736,12.9163636 C64.3659648,12.790303 64.1159999,12.7272727 63.8275789,12.7272727 C62.770035,12.7272727 62.2412631,13.28 62.2412631,14.3854545 L62.2412631,14.3854545 L62.2412631,23.4618182 C62.2412631,24.5478788 62.770035,25.0909091 63.8275789,25.0909091 Z M78.9300262,25.4690909 C79.6222367,25.4690909 80.2327279,25.3624242 80.7614999,25.1490909 C81.2902718,24.9357576 81.6988683,24.6642424 81.9872893,24.3345455 C82.0834297,24.5478788 82.2468683,24.7272727 82.4776051,24.8727273 C82.708342,25.0181818 82.977535,25.0909091 83.2851841,25.0909091 C84.3811841,25.0909091 84.9291841,24.5672727 84.9291841,23.52 L84.9291841,23.52 L84.9291841,14.3854545 C84.9291841,13.28 84.3811841,12.7272727 83.2851841,12.7272727 C82.2276402,12.7272727 81.6988683,13.28 81.6988683,14.3854545 L81.6988683,14.3854545 L81.6988683,19.7381818 C81.6988683,20.4363636 81.4537104,21.0278788 80.9633946,21.5127273 C80.4730788,21.9975758 79.8818157,22.24 79.1896051,22.24 C78.8434999,22.24 78.5214297,22.1769697 78.2233946,22.0509091 C77.9253595,21.9248485 77.6657806,21.7454545 77.4446578,21.5127273 C77.223535,21.28 77.0456753,21.0133333 76.9110788,20.7127273 C76.7764823,20.4121212 76.7091841,20.0872727 76.7091841,19.7381818 L76.7091841,19.7381818 L76.7091841,14.3854545 C76.7091841,13.28 76.1611841,12.7272727 75.0651841,12.7272727 C74.0268683,12.7272727 73.5077104,13.28 73.5077104,14.3854545 L73.5077104,14.3854545 L73.5077104,19.3018182 C73.5077104,20.2327273 73.6374999,21.0763636 73.8970788,21.8327273 C74.1566578,22.5890909 74.5219911,23.2339394 74.9930788,23.7672727 C75.4641665,24.3006061 76.0362016,24.7175758 76.7091841,25.0181818 C77.3821665,25.3187879 78.1224472,25.4690909 78.9300262,25.4690909 Z M89.7061577,11.68 C90.1484033,11.68 90.5666139,11.52 90.9607893,11.2 C91.3549647,10.88 91.5520525,10.409697 91.5520525,9.78909091 C91.5520525,9.20727273 91.3549647,8.74666667 90.9607893,8.40727273 C90.5666139,8.06787879 90.1484033,7.89818182 89.7061577,7.89818182 C89.1485437,7.89818182 88.7014911,8.06787879 88.3649998,8.40727273 C88.0285086,8.74666667 87.860263,9.20727273 87.860263,9.78909091 C87.860263,10.409697 88.0285086,10.88 88.3649998,11.2 C88.7014911,11.52 89.1485437,11.68 89.7061577,11.68 Z M89.6484735,25.0909091 C90.7444735,25.0909091 91.2924735,24.5672727 91.2924735,23.52 L91.2924735,23.52 L91.2924735,14.3854545 C91.2924735,13.28 90.7348595,12.7272727 89.6196314,12.7272727 C88.5620875,12.7272727 88.0333156,13.28 88.0333156,14.3854545 L88.0333156,14.3854545 L88.0333156,23.52 C88.0333156,24.5672727 88.5717016,25.0909091 89.6484735,25.0909091 Z M97.1654472,25.0909091 C98.2614472,25.0909091 98.8094472,24.5672727 98.8094472,23.52 L98.8094472,23.52 L98.8094472,15.3163636 L99.5593419,15.3163636 C100.097728,15.3163636 100.49671,15.1854545 100.756289,14.9236364 C101.015868,14.6618182 101.145658,14.3660606 101.145658,14.0363636 C101.145658,13.7066667 101.015868,13.4060606 100.756289,13.1345455 C100.49671,12.8630303 100.097728,12.7272727 99.5593419,12.7272727 L99.5593419,12.7272727 L98.8094472,12.7272727 L98.8094472,10.9818182 C98.8094472,9.89575758 98.2614472,9.35272727 97.1654472,9.35272727 C96.1079033,9.35272727 95.5791314,9.89575758 95.5791314,10.9818182 L95.5791314,10.9818182 L95.5791314,12.7272727 L94.944605,12.7272727 C94.4446752,12.7272727 94.0745349,12.8630303 93.834184,13.1345455 C93.5938331,13.4060606 93.4736577,13.7066667 93.4736577,14.0363636 C93.4736577,14.3660606 93.5938331,14.6618182 93.834184,14.9236364 C94.0745349,15.1854545 94.4446752,15.3163636 94.944605,15.3163636 L94.944605,15.3163636 L95.5791314,15.3163636 L95.5791314,23.52 C95.5791314,24.5672727 96.1079033,25.0909091 97.1654472,25.0909091 Z M105.115052,11.68 C105.557298,11.68 105.975509,11.52 106.369684,11.2 C106.763859,10.88 106.960947,10.409697 106.960947,9.78909091 C106.960947,9.20727273 106.763859,8.74666667 106.369684,8.40727273 C105.975509,8.06787879 105.557298,7.89818182 105.115052,7.89818182 C104.557438,7.89818182 104.110386,8.06787879 103.773894,8.40727273 C103.437403,8.74666667 103.269158,9.20727273 103.269158,9.78909091 C103.269158,10.409697 103.437403,10.88 103.773894,11.2 C104.110386,11.52 104.557438,11.68 105.115052,11.68 Z M105.057368,25.0909091 C106.153368,25.0909091 106.701368,24.5672727 106.701368,23.52 L106.701368,23.52 L106.701368,14.3854545 C106.701368,13.28 106.143754,12.7272727 105.028526,12.7272727 C103.970982,12.7272727 103.44221,13.28 103.44221,14.3854545 L103.44221,14.3854545 L103.44221,23.52 C103.44221,24.5672727 103.980596,25.0909091 105.057368,25.0909091 Z M112.199394,25.0909091 C113.256938,25.0909091 113.78571,24.5575758 113.78571,23.4909091 L113.78571,23.4909091 L113.78571,15.3163636 L114.88171,15.3163636 C115.38164,15.3163636 115.75178,15.1854545 115.992131,14.9236364 C116.232482,14.6618182 116.352658,14.3660606 116.352658,14.0363636 C116.352658,13.7066667 116.232482,13.4060606 115.992131,13.1345455 C115.75178,12.8630303 115.38164,12.7272727 114.88171,12.7272727 L114.88171,12.7272727 L113.78571,12.7272727 L113.78571,10.4872727 C113.78571,10.2351515 113.886658,10.0072727 114.088552,9.80363636 C114.290447,9.6 114.525991,9.49818182 114.795184,9.49818182 C115.025921,9.49818182 115.227815,9.57575758 115.400868,9.73090909 C115.573921,9.88606061 115.689289,10.0993939 115.746973,10.3709091 C115.939254,10.7975758 116.174798,11.0933333 116.453605,11.2581818 C116.732412,11.4230303 117.016026,11.5054545 117.304447,11.5054545 C118.419675,11.5054545 118.977289,10.9721212 118.977289,9.90545455 C118.977289,9.3430303 118.857114,8.83393939 118.616763,8.37818182 C118.376412,7.92242424 118.059149,7.53939394 117.664973,7.22909091 C117.270798,6.91878788 116.823745,6.68121212 116.323815,6.51636364 C115.823886,6.35151515 115.314342,6.26909091 114.795184,6.26909091 C114.160658,6.26909091 113.579008,6.38060606 113.050237,6.60363636 C112.521465,6.82666667 112.069605,7.12727273 111.694658,7.50545455 C111.31971,7.88363636 111.031289,8.32969697 110.829394,8.84363636 C110.6275,9.35757576 110.526552,9.90545455 110.526552,10.4872727 L110.526552,10.4872727 L110.526552,12.7272727 C110.122763,12.7272727 109.819921,12.8630303 109.618026,13.1345455 C109.416131,13.4060606 109.315184,13.7066667 109.315184,14.0363636 C109.315184,14.3660606 109.416131,14.6618182 109.618026,14.9236364 C109.819921,15.1854545 110.122763,15.3163636 110.526552,15.3163636 L110.526552,15.3163636 L110.526552,23.4909091 C110.526552,24.5575758 111.084166,25.0909091 112.199394,25.0909091 Z M122.254473,31.8109091 C122.523666,31.8109091 122.778438,31.7527273 123.018789,31.6363636 C123.25914,31.52 123.456228,31.2969697 123.610052,30.9672727 L123.610052,30.9672727 L130.849421,14.9381818 C130.907105,14.7442424 130.935947,14.550303 130.935947,14.3563636 C130.935947,13.8715152 130.772508,13.4787879 130.445631,13.1781818 C130.118754,12.8775758 129.743807,12.7272727 129.320789,12.7272727 C129.032368,12.7272727 128.758368,12.8 128.498789,12.9454545 C128.23921,13.0909091 128.032508,13.3381818 127.878684,13.6872727 L127.878684,13.6872727 L125.282894,19.68 L122.456368,13.6290909 C122.167947,13.0278788 121.716087,12.7272727 121.100789,12.7272727 C120.716228,12.7272727 120.350894,12.8775758 120.004789,13.1781818 C119.658684,13.4787879 119.485631,13.8812121 119.485631,14.3854545 C119.485631,14.5793939 119.533701,14.8218182 119.629842,15.1127273 L119.629842,15.1127273 L123.465842,23.3163636 L120.783526,29.4836364 C120.706614,29.6193939 120.658544,29.7454545 120.639315,29.8618182 C120.620087,29.9781818 120.610473,30.1139394 120.610473,30.2690909 C120.610473,30.7733333 120.773912,31.1563636 121.100789,31.4181818 C121.427666,31.68 121.812228,31.8109091 122.254473,31.8109091 Z" id="ecruitify" fill="currentColor" fill-rule="nonzero"></path>
                    <g id="Sygnet" stroke-linecap="round" stroke-linejoin="round" stroke-width="6.48">
                        <path d="M0,9.47004228 C0,4.23957717 4.28030549,0 9.56020763,0 C14.8397469,0 19.1200524,4.23957717 19.1200524,9.47004228 C19.1200524,14.700148 14.8397469,18.9400846 9.56020763,18.9400846" id="Stroke-1" stroke="currentColor"></path>
                        <line x1="24.0850181" y1="30.5234461" x2="15.2388599" y2="17.442516" id="Stroke-3" stroke="currentColor"></line>
                        <line x1="0" y1="30.7293869" x2="0" y2="20.845666" id="Stroke-5" stroke="currentColor"></line>
                    </g>
                </g>
            </g>
        </g>
    </g>
</svg>
