
<svg width="64px" height="64px" viewBox="0 0 64 64" version="1.1" xmlns="http://www.w3.org/2000/svg" xmlns:xlink="http://www.w3.org/1999/xlink">
    <g id="Case-Study" stroke="none" stroke-width="1" fill="none" fill-rule="evenodd">
        <g id="Recruitify---Case-Study" transform="translate(-145.000000, -251.000000)">
            <g id="01.-Main" transform="translate(34.880713, -260.499606)">
                <g id="Left" transform="translate(110.119287, 320.499606)">
                    <g id="Logo-icon" transform="translate(0.000000, 191.000000)">
                        <path d="M14,0 L50,0 C57.7319865,-1.42034288e-15 64,6.2680135 64,14 L64,50 C64,57.7319865 57.7319865,64 50,64 L14,64 C6.2680135,64 9.46895252e-16,57.7319865 0,50 L0,14 C-9.46895252e-16,6.2680135 6.2680135,1.42034288e-15 14,0 Z" id="Rectangle-2" fill="#013243" fill-rule="nonzero"></path>
                        <g id="Logo/Dark-BG" transform="translate(19.000000, 15.000000)" stroke-linecap="round" stroke-linejoin="round" stroke-width="6.4">
                            <g id="Sygnet" transform="translate(2.000000, 2.000000)">
                                <path d="M0,9.19151163 C0,4.11488372 4.22129073,0 9.42839617,0 C14.6351438,0 18.8564345,4.11488372 18.8564345,9.19151163 C18.8564345,14.2677907 14.6351438,18.3830233 9.42839617,18.3830233" id="Stroke-1" stroke="#FFFFFF"></path>
                                <line x1="23.7529457" y1="29.6256977" x2="15.028754" y2="16.3953488" id="Stroke-3" stroke="#FFFFFF"></line>
                                <line x1="0" y1="29.8255814" x2="0" y2="20.2325581" id="Stroke-5" stroke="#02E079"></line>
                            </g>
                        </g>
                    </g>
                </g>
            </g>
        </g>
    </g>
</svg>
