
<svg width="45px" height="22px" viewBox="0 0 45 22" version="1.1" xmlns="http://www.w3.org/2000/svg" xmlns:xlink="http://www.w3.org/1999/xlink">
    <g id="Page-1" stroke="none" stroke-width="1" fill="none" fill-rule="evenodd">
        <g id="01.-Home" transform="translate(-802.000000, -4184.000000)" fill="#000000">
            <g id="03.-Cases" transform="translate(47.000000, 1669.000000)">
                <g id="Case-3" transform="translate(53.000000, 2228.000000)">
                    <g id="Text" transform="translate(702.000000, 286.000000)">
                        <g id="Projects'-logo" transform="translate(0.000000, 1.000000)">
                            <path d="M17.5167817,0 C19.0711281,0 20.4206118,0.204238939 21.5652329,0.612817874 C22.7099568,1.02139681 23.6656399,1.60278554 24.4322823,2.35708511 C25.1989247,3.11138468 25.7870057,4.02283 26.1966282,5.09142106 C26.606148,6.16001213 26.8529284,7.35421873 26.9369693,8.67424298 C27.0210102,10.2247813 27.0210102,11.7752187 26.9369693,13.325656 C26.8529284,14.6456802 26.606148,15.8399879 26.1966282,16.9085789 C25.7870057,17.97717 25.2041644,18.8885143 24.4480014,19.6428138 C23.6919412,20.3971134 22.7519773,20.9785021 21.628315,21.3870811 C20.50455,21.79566 19.1866073,22 17.6743842,22 L9.73498148,22 C9.50392027,22 9.30440011,21.9161216 9.13631823,21.7485668 C8.9683391,21.580911 8.88429817,21.3819271 8.88429817,21.151413 L8.88429817,0.84858702 C8.88429817,0.618072909 8.9683391,0.418987946 9.13631823,0.251433191 C9.30440011,0.0837773776 9.50392027,0 9.73498148,0 L17.5167817,0 Z M37.0158078,5 C38.1775281,5 39.2283869,5.17836451 40.168281,5.53519475 C41.1082784,5.89192376 41.9214,6.3851087 42.6079556,7.01474958 C43.2944079,7.64439046 43.843549,8.37900522 44.2554824,9.21849265 C44.6673124,10.0579801 44.9049464,10.9604316 44.968281,11.9259484 C44.9894614,12.1147395 45,12.3561693 45,12.6499342 L45,12.6499342 L45,14.3972383 C45,14.633303 44.9926643,14.8366709 44.977993,15.0071396 L44.977993,15.0071396 L44.968281,15.1055336 C44.8838693,16.0709492 44.640966,16.9734007 44.2395712,17.8128882 C43.8382797,18.6524768 43.2944079,19.3817265 42.6079556,20.0009408 C41.9214,20.6200539 41.1082784,21.107975 40.168281,21.4648053 C39.2283869,21.8215343 38.1775281,22 37.0158078,22 C35.8540876,22 34.8032287,21.8215343 33.8633346,21.4648053 C32.9234405,21.107975 32.1102157,20.6200539 31.4237634,20.0009408 C30.7372078,19.3817265 30.1933359,18.6524768 29.7920444,17.8128882 C29.421542,17.0379845 29.1860777,16.2094297 29.0856516,15.3272239 L29.0856516,15.3272239 L29.0633346,15.1055336 C29.0421542,14.9166414 29.0263464,14.6805766 29.0158078,14.3972383 C29.0052693,14.1138999 29,13.8252976 29,13.5314314 C29,13.3355544 29.002273,13.1396774 29.0070257,12.9438004 L29.0070257,12.9438004 L29.0158078,12.6499342 C29.0263464,12.3561693 29.0421542,12.1147395 29.0633346,11.9259484 C29.1266692,10.9604316 29.3643032,10.0579801 29.7762366,9.21849265 C30.1880666,8.37900522 30.7372078,7.64439046 31.4237634,7.01474958 C32.1102157,6.3851087 32.9234405,5.89192376 33.8633346,5.53519475 C34.8032287,5.17836451 35.8540876,5 37.0158078,5 Z M3.40242503,7.36331398 C3.63348624,7.36331398 3.83300641,7.43840034 4.00098554,7.588472 C4.16906741,7.73864472 4.25310835,7.91691166 4.25310835,8.12327282 L4.25310835,8.12327282 L4.25310835,21.2400412 C4.25310835,21.4465034 4.16906741,21.6247703 4.00098554,21.774842 C3.83300641,21.9250147 3.63348624,22 3.40242503,22 L3.40242503,22 L1.00797753,22 C0.77691633,22 0.577396162,21.9250147 0.409417029,21.774842 C0.241335157,21.6247703 0.157396961,21.4465034 0.157396961,21.2400412 L0.157396961,21.2400412 L0.157396961,8.12327282 C0.157396961,7.91691166 0.241335157,7.73864472 0.409417029,7.588472 C0.577396162,7.43840034 0.77691633,7.36331398 1.00797753,7.36331398 L1.00797753,7.36331398 Z M37.0153945,8.77774403 C36.5718455,8.77774403 36.1388351,8.82491649 35.7164665,8.91936262 C35.2939946,9.01380875 34.9032416,9.18701061 34.5441044,9.43886696 C34.1850704,9.69072331 33.8841018,10.0317619 33.6411985,10.4619828 C33.3982952,10.8922036 33.2451763,11.4326622 33.1817383,12.0832574 L33.1716131,12.1707188 C33.1554953,12.322359 33.1429937,12.5030517 33.1342115,12.7128983 C33.123673,12.9647546 33.1184037,13.2271387 33.1184037,13.4999494 C33.1184037,13.77276 33.123673,14.040408 33.1342115,14.3026909 C33.1448534,14.565075 33.1606612,14.7697589 33.1817383,14.9166414 C33.2451763,15.5672365 33.3982952,16.1076951 33.6411985,16.537916 C33.8841018,16.9681369 34.1850704,17.3091755 34.5441044,17.5610318 C34.9032416,17.8128882 35.2939946,17.98609 35.7164665,18.0805362 C36.1388351,18.1749823 36.5718455,18.2221547 37.0153945,18.2221547 C37.4590469,18.2221547 37.891954,18.1749823 38.3144259,18.0805362 C38.7368978,17.98609 39.1276508,17.8128882 39.4866847,17.5610318 C39.845822,17.3091755 40.1467906,16.9681369 40.3896939,16.537916 C40.6325972,16.1076951 40.7857161,15.5672365 40.8491541,14.9166414 C40.8642387,14.8116675 40.8738473,14.6773373 40.8781867,14.5134485 L40.8807697,14.3026909 L40.8799432,12.5905131 C40.8769469,12.3923078 40.8667183,12.2232563 40.8491541,12.0832574 L40.8296268,11.9085371 C40.7572001,11.3352805 40.6104869,10.8531294 40.3896939,10.4619828 C40.1467906,10.0317619 39.845822,9.69072331 39.4866847,9.43886696 C39.1276508,9.18701061 38.7368978,9.01380875 38.3144259,8.91936262 C37.891954,8.82491649 37.4590469,8.77774403 37.0153945,8.77774403 Z M17.3587683,3.92864361 L13.1370983,3.92864361 L13.1370983,18.0714574 L17.5163708,18.0714574 C18.3774308,18.0714574 19.1231143,17.9509959 19.7532158,17.7100728 C20.3833174,17.4690486 20.9084191,17.139093 21.3285211,16.720004 C21.7485203,16.3010161 22.0688621,15.7981497 22.2894439,15.211506 C22.5099229,14.6247611 22.641224,13.9962792 22.6832445,13.325757 C22.7672855,11.7752187 22.7672855,10.2247813 22.6832445,8.67434404 C22.641224,8.00382184 22.5099229,7.3804939 22.2894439,6.80436021 C22.0688621,6.22812546 21.7432805,5.72525908 21.3126992,5.29576106 C20.8821178,4.86626305 20.3412969,4.53095142 19.6902365,4.2900283 C19.0390734,4.04910517 18.2619516,3.92864361 17.3587683,3.92864361 L17.3587683,3.92864361 Z M3.56002747,0 C3.79108868,0 3.99060885,0.0837773776 4.15869072,0.251433191 C4.32666985,0.418987946 4.41071079,0.618072909 4.41071079,0.84858702 L4.41071079,0.84858702 L4.41071079,3.29995958 C4.41071079,3.53047369 4.32666985,3.72945759 4.15869072,3.89711341 C3.99060885,4.06476922 3.79108868,4.1485466 3.56002747,4.1485466 L3.56002747,4.1485466 L0.850580573,4.1485466 C0.619519369,4.1485466 0.419999201,4.06476922 0.252020068,3.89711341 C0.0839381965,3.72945759 0,3.53047369 0,3.29995958 L0,3.29995958 L0,0.84858702 C0,0.618072909 0.0839381965,0.418987946 0.252020068,0.251433191 C0.419999201,0.0837773776 0.619519369,0 0.850580573,0 L0.850580573,0 Z" id="Combined-Shape"></path>
                        </g>
                    </g>
                </g>
            </g>
        </g>
    </g>
</svg>
