<svg width="99px" height="24px" viewBox="0 0 99 24" version="1.1" xmlns="http://www.w3.org/2000/svg" xmlns:xlink="http://www.w3.org/1999/xlink">
    <g id="🥳-Design" stroke="none" stroke-width="1" fill="none" fill-rule="evenodd">
        <g id="JupiterX" transform="translate(-1.000000, 0.000000)">
            <g transform="translate(1.000000, 0.000000)">
                <g id="Group" fill="currentColor" fill-rule="nonzero">
                    <path d="M8.4,0.0705882353 L8.4,0.0705882353 C8.82352941,0.0705882353 9.10588235,0.352941176 9.10588235,0.705882353 L9.10588235,13.0588235 C9.10588235,16.3764706 7.2,18.2117647 4.37647059,18.2117647 C2.25882353,18.2117647 0.847058824,16.9411765 0.211764706,16.1647059 C-1.2490009e-16,15.8823529 -1.2490009e-16,15.4588235 0.282352941,15.2470588 L0.282352941,15.2470588 C0.564705882,15.0352941 0.988235294,15.0352941 1.2,15.3176471 C1.69411765,15.9529412 2.75294118,16.8705882 4.37647059,16.8705882 C6.84705882,16.8705882 7.76470588,15.0352941 7.76470588,12.9882353 L7.76470588,0.705882353 C7.69411765,0.352941176 8.04705882,0.0705882353 8.4,0.0705882353 Z" id="Path"></path>
                    <path d="M13.1294118,13.6941176 L13.1294118,6.84705882 C13.1294118,6.49411765 13.4117647,6.21176471 13.7647059,6.21176471 L13.9058824,6.21176471 C14.2588235,6.21176471 14.5411765,6.49411765 14.5411765,6.84705882 L14.5411765,13.4823529 C14.5411765,15.8823529 15.8823529,16.8705882 17.8588235,16.8705882 C20.4,16.8705882 21.4588235,14.3294118 21.4588235,14.3294118 L21.4588235,6.84705882 C21.4588235,6.49411765 21.7411765,6.21176471 22.0941176,6.21176471 L22.2352941,6.21176471 C22.5882353,6.21176471 22.8705882,6.49411765 22.8705882,6.84705882 L22.8705882,17.2941176 C22.8705882,17.6470588 22.5882353,17.9294118 22.2352941,17.9294118 L22.2352941,17.9294118 C21.8823529,17.9294118 21.6,17.6470588 21.6,17.2941176 L21.6,15.8117647 C21.6,15.8117647 20.4705882,18.2117647 17.6470588,18.2117647 C15.2470588,18.2117647 13.1294118,16.8705882 13.1294118,13.6941176 Z" id="Path"></path>
                    <path d="M27.5294118,6.84705882 L27.5294118,8.4 C27.5294118,8.4 28.8705882,5.92941176 31.8352941,5.92941176 C35.0823529,5.92941176 37.6235294,8.4 37.6235294,12.0705882 C37.6235294,15.6705882 35.0823529,18.2117647 31.8352941,18.2117647 C29.2235294,18.2117647 27.9529412,16.4470588 27.6,15.9529412 L27.6,23.1529412 C27.6,23.5058824 27.3176471,23.7176471 27.0352941,23.7176471 L26.8941176,23.7176471 C26.5411765,23.7176471 26.3294118,23.4352941 26.3294118,23.1529412 L26.3294118,6.91764706 C26.3294118,6.56470588 26.6117647,6.28235294 26.8941176,6.28235294 L26.8941176,6.28235294 C27.2470588,6.28235294 27.5294118,6.56470588 27.5294118,6.84705882 Z M27.6705882,14.1882353 C27.6705882,14.1882353 28.9411765,16.8705882 31.8352941,16.8705882 C34.4470588,16.8705882 36.2117647,14.7529412 36.2117647,12.0705882 C36.2117647,9.38823529 34.3764706,7.27058824 31.8352941,7.27058824 C28.8705882,7.27058824 27.6705882,9.95294118 27.6705882,9.95294118 L27.6705882,14.1882353 Z" id="Shape"></path>
                    <path d="M41.3647059,1.48235294 C41.9294118,1.48235294 42.3529412,1.97647059 42.3529412,2.47058824 C42.3529412,2.96470588 41.9294118,3.52941176 41.3647059,3.52941176 C40.8,3.52941176 40.3764706,3.03529412 40.3764706,2.54117647 C40.3764706,2.04705882 40.8,1.48235294 41.3647059,1.48235294 Z M41.3647059,6.28235294 L41.3647059,6.28235294 C41.7176471,6.28235294 42,6.56470588 42,6.91764706 L42,17.2235294 C42,17.5764706 41.7176471,17.8588235 41.3647059,17.8588235 L41.3647059,17.8588235 C41.0117647,17.8588235 40.7294118,17.5764706 40.7294118,17.2235294 L40.7294118,6.91764706 C40.7294118,6.56470588 41.0117647,6.28235294 41.3647059,6.28235294 Z" id="Shape"></path>
                    <path d="M45.6,6.28235294 L47.5058824,6.28235294 L47.5058824,3.17647059 C47.5058824,2.82352941 47.7882353,2.54117647 48.1411765,2.54117647 L48.2117647,2.54117647 C48.5647059,2.54117647 48.8470588,2.82352941 48.8470588,3.17647059 L48.8470588,6.28235294 L50.7529412,6.28235294 C51.1058824,6.28235294 51.3882353,6.56470588 51.3882353,6.91764706 L51.3882353,6.91764706 C51.3882353,7.27058824 51.1058824,7.55294118 50.7529412,7.55294118 L48.8470588,7.55294118 L48.8470588,14.5411765 C48.8470588,15.8117647 49.3411765,16.9411765 50.8941176,16.9411765 C51.3176471,16.9411765 51.7411765,16.8 52.0941176,16.6588235 C52.3764706,16.5176471 52.7294118,16.6588235 52.8705882,17.0117647 L52.8705882,17.0117647 C53.0117647,17.3647059 52.8705882,17.7176471 52.5176471,17.8588235 C52.0941176,18.0705882 51.4588235,18.2823529 50.8235294,18.2823529 C48.5647059,18.2823529 47.5058824,16.7294118 47.5058824,14.8235294 L47.5058824,7.48235294 L45.6,7.48235294 C45.2470588,7.48235294 44.9647059,7.2 44.9647059,6.84705882 L44.9647059,6.84705882 C44.9647059,6.56470588 45.2470588,6.28235294 45.6,6.28235294 Z" id="Path"></path>
                    <path d="M66.1411765,12.0705882 C66.1411765,12.2823529 66.1411765,12.3529412 66.1411765,12.6352941 L56.1176471,12.6352941 C56.1882353,14.4 57.6705882,16.9411765 60.7764706,16.9411765 C62.2588235,16.9411765 63.5294118,16.2352941 64.3058824,15.4588235 C64.5176471,15.1764706 64.9411765,15.2470588 65.2235294,15.4588235 L65.2235294,15.4588235 C65.4352941,15.7411765 65.4352941,16.0941176 65.2235294,16.3764706 C64.0941176,17.5058824 62.4705882,18.2823529 60.7764706,18.2823529 C57.3176471,18.2823529 54.8470588,15.4588235 54.8470588,12.1411765 C54.8470588,8.82352941 57.1058824,6 60.5647059,6 C63.6,5.92941176 66.1411765,8.54117647 66.1411765,12.0705882 Z M64.7294118,11.3647059 C64.6588235,10.0235294 63.5294118,7.2 60.4941176,7.2 C57.2470588,7.2 56.1882353,10.0235294 56.1176471,11.3647059 L64.7294118,11.3647059 Z" id="Shape"></path>
                    <path d="M74.9647059,6.98823529 L74.9647059,6.98823529 C74.8235294,7.27058824 74.5411765,7.41176471 74.1882353,7.34117647 C73.9764706,7.27058824 73.6235294,7.27058824 73.1294118,7.27058824 C71.1529412,7.27058824 70.1647059,9.74117647 70.1647059,9.74117647 L70.1647059,17.2235294 C70.1647059,17.5764706 69.8823529,17.8588235 69.5294118,17.8588235 L69.5294118,17.8588235 C69.1764706,17.8588235 68.8941176,17.5764706 68.8941176,17.2235294 L68.8941176,6.84705882 C68.8941176,6.49411765 69.1764706,6.21176471 69.4588235,6.21176471 L69.4588235,6.21176471 C69.8117647,6.21176471 70.0235294,6.49411765 70.0235294,6.84705882 L70.0235294,7.83529412 C70.0235294,7.83529412 71.0117647,5.92941176 73.4117647,5.92941176 C73.8352941,5.92941176 74.1176471,6 74.4,6 C74.8941176,6.14117647 75.1058824,6.56470588 74.9647059,6.98823529 Z" id="Path"></path>
                </g>
                <path d="M98.0470588,0.494117647 C98.1882353,0.282352941 98.0470588,0 97.8352941,0 L95.1529412,0 C94.3058824,0 93.4588235,0.352941176 92.9647059,1.05882353 L88.9411765,5.85882353 C88.8,6 88.5882353,6 88.5176471,5.85882353 L84.5647059,1.05882353 C84,0.352941176 83.1529412,0 82.3058824,0 L79.6235294,0 C79.4117647,0 79.2705882,0.282352941 79.4117647,0.494117647 L86.2588235,8.82352941 C86.3294118,8.89411765 86.3294118,9.10588235 86.2588235,9.17647059 L79.4117647,17.5058824 C79.2705882,17.7176471 79.4117647,18 79.6235294,18 L82.3058824,18 C83.1529412,18 84,17.6470588 84.4941176,16.9411765 L98.0470588,0.494117647 Z M91.4117647,9.67058824 L89.2941176,12.2823529 C89.2235294,12.3529412 89.2235294,12.4235294 89.2941176,12.4941176 L92.8941176,16.8705882 C93.4588235,17.5058824 94.2352941,17.9294118 95.0823529,17.9294118 L97.7647059,17.9294118 C97.9764706,17.9294118 98.1176471,17.6470588 97.9764706,17.4352941 L91.5529412,9.67058824 C91.6235294,9.6 91.4823529,9.6 91.4117647,9.67058824 Z" id="Shape" fill="#FFFFFF" fill-rule="nonzero"></path>
            </g>
        </g>
    </g>
</svg>
