<svg width="26px" height="26px" viewBox="0 0 26 26" version="1.1" xmlns="http://www.w3.org/2000/svg" xmlns:xlink="http://www.w3.org/1999/xlink">
    <defs>
        <polygon id="path-2" points="0 0.0144529412 26 0.0144529412 26 25.5982235 0 25.5982235"></polygon>
    </defs>
    <g id="🥳-Design" stroke="none" stroke-width="1" fill="none" fill-rule="evenodd">
        <g id="QC-Logo-vector" transform="translate(3.000000, 1.000000)">
            <g transform="translate(-3.000000, -1.000000)">
                <mask id="mask-3" fill="currentColor">
                    <use xlink:href="#path-2"></use>
                </mask>
                <g id="Clip-2"></g>
                <path d="M7.68403618,23.7805253 C7.48472324,24.1178294 7.15822441,24.2857588 6.70316324,24.2857588 C6.25560382,24.2857588 5.932615,24.1178294 5.73412794,23.7805253 C5.534815,23.4432212 5.43488324,22.95774 5.43488324,22.3239441 C5.43488324,21.6898041 5.534815,21.2045294 5.73412794,20.8670876 C5.932615,20.5293018 6.25560382,20.3606841 6.70316324,20.3606841 C7.15822441,20.3606841 7.48472324,20.5293018 7.68403618,20.8670876 C7.88362441,21.2045294 7.98307441,21.6898041 7.98307441,22.3239441 C7.98307441,22.95774 7.88362441,23.4432212 7.68403618,23.7805253 Z M8.99443618,19.9649488 C8.74288618,19.6681129 8.42540324,19.4343882 8.04357029,19.2637059 C7.66173735,19.0931612 7.21479735,19.0082329 6.70316324,19.0082329 C6.19084088,19.0082329 5.74589676,19.0931612 5.36819324,19.2637059 C4.99007676,19.4343882 4.67754912,19.6681129 4.42957794,19.9649488 C4.18201971,20.2615782 3.99502618,20.6129224 3.86839088,21.0193941 C3.742375,21.4255906 3.68002088,21.86028 3.68002088,22.3239441 C3.68002088,22.7867824 3.742375,23.2176865 3.86839088,23.6157618 C3.99502618,24.0140435 4.18201971,24.3612582 4.42957794,24.6579565 C4.67754912,24.9547235 4.99007676,25.1861771 5.36819324,25.35273 C5.74589676,25.5193518 6.19084088,25.6023529 6.70316324,25.6023529 C7.21479735,25.6023529 7.66173735,25.5193518 8.04357029,25.35273 C8.42540324,25.1861771 8.74288618,24.9547235 8.99443618,24.6579565 C9.24694971,24.3612582 9.43332382,24.0140435 9.55548559,23.6157618 C9.67695912,23.2176865 9.73800559,22.7867824 9.73800559,22.3239441 C9.73800559,21.86028 9.67695912,21.4255906 9.55548559,21.0193941 C9.43332382,20.6129224 9.24694971,20.2615782 8.99443618,19.9649488 L8.99443618,19.9649488 Z" id="Fill-1" fill="currentColor" fill-rule="nonzero" mask="url(#mask-3)"></path>
                <path d="M14.3533803,19.0082329 C14.124955,19.0082329 13.9179338,19.0383776 13.7316285,19.0996306 C13.5447726,19.1602641 13.3762926,19.23948 13.2256379,19.3367965 C13.0751209,19.4343882 12.943255,19.5440929 12.829765,19.6663235 C12.7155179,19.7884853 12.6175821,19.9101653 12.537265,20.0317076 C12.5287997,19.9749282 12.5188203,19.9063112 12.5071203,19.8246865 C12.4938374,19.7436124 12.4803479,19.6601982 12.4636238,19.5746506 C12.4475879,19.4895847 12.4290744,19.4082353 12.4095974,19.3306024 C12.3890879,19.2537953 12.3665138,19.1951576 12.3419438,19.1540012 C12.2281097,19.1297753 12.1179232,19.1115371 12.0122791,19.0996306 C11.9069791,19.0873112 11.7855056,19.0811859 11.6475144,19.0811859 C11.5093168,19.0811859 11.3830256,19.0873112 11.2688474,19.0996306 C11.1559768,19.1115371 11.0413856,19.1297753 10.9279644,19.1540012 L10.9279644,25.4560341 C11.2203956,25.5052429 11.5093168,25.5294 11.7939709,25.5294 C12.0776615,25.5294 12.3665138,25.5052429 12.6586697,25.4560341 L12.6586697,22.1533306 C12.6586697,21.8117594 12.6950085,21.5351576 12.7692691,21.3239382 C12.8418779,21.1123059 12.9371297,20.9483682 13.0549556,20.8305424 C13.1731944,20.7127165 13.3046474,20.6333629 13.4515168,20.5926882 C13.5976291,20.5518759 13.7401626,20.5319171 13.8777409,20.5319171 C14.2106403,20.5319171 14.4452597,20.6496741 14.5788462,20.8854635 C14.7129832,21.1211841 14.7798109,21.4579376 14.7798109,21.8968941 L14.7798109,25.4560341 C15.0727238,25.5052429 15.3613009,25.5294 15.6456797,25.5294 C15.9296456,25.5294 16.2184979,25.5052429 16.5106538,25.4560341 L16.5106538,21.4340559 C16.5106538,20.5967488 16.3302674,19.9832559 15.9688062,19.5930265 C15.6066568,19.2030724 15.0684568,19.0082329 14.3533803,19.0082329" id="Fill-3" fill="currentColor" fill-rule="nonzero" mask="url(#mask-3)"></path>
                <path d="M19.4119785,21.6288265 C19.4525844,21.21444 19.5784626,20.8932406 19.7906456,20.6659165 C20.0009703,20.4385235 20.3099879,20.3246206 20.7168038,20.3246206 C21.0742044,20.3246206 21.3524579,20.4449241 21.5511515,20.6842924 C21.7511526,20.9237982 21.8577603,21.2386659 21.8749662,21.6288265 L19.4119785,21.6288265 Z M23.3252844,20.8305424 C23.2036044,20.4606847 23.021635,20.1413435 22.7828174,19.8731382 C22.5430362,19.6050706 22.2533579,19.3939888 21.9115115,19.23948 C21.5703532,19.0849712 21.1799174,19.0082329 20.7408921,19.0082329 C20.2374479,19.0082329 19.7962891,19.0957076 19.4185168,19.2697624 C19.0409509,19.4445741 18.7240874,19.6827035 18.4675821,19.9832559 C18.2114209,20.2839459 18.0182332,20.6375612 17.8880879,21.04362 C17.7583556,21.4502982 17.6936615,21.8847124 17.6936615,22.3482388 C17.6936615,22.8192671 17.756635,23.2544382 17.8821691,23.6523759 C18.0086668,24.0507265 18.2035062,24.3943624 18.4675821,24.6826641 C18.7313826,24.9707594 19.0731603,25.1962941 19.4909191,25.3587865 C19.9099856,25.5214165 20.4117091,25.6023529 20.9973285,25.6023529 C21.7943738,25.6023529 22.5086244,25.4808106 23.1422138,25.2371753 C23.1342991,24.97716 23.0980291,24.7331118 23.0327156,24.5051682 C22.9682279,24.2783947 22.8902509,24.08328 22.8011244,23.9204435 C22.5406274,24.0176912 22.2669162,24.0932594 21.9777885,24.1463224 C21.6898997,24.1988347 21.4075856,24.2254694 21.1305709,24.2254694 C20.6274021,24.2254694 20.2214809,24.1152829 19.911775,23.8961488 C19.6033079,23.6767394 19.4327632,23.3231241 19.4005538,22.8359912 L23.4476526,22.8359912 C23.4632756,22.7462453 23.4777974,22.6262859 23.4897038,22.4759065 C23.5019544,22.3256647 23.5080797,22.1737712 23.5080797,22.0186429 C23.5080797,21.5960665 23.4476526,21.2001935 23.3252844,20.8305424 L23.3252844,20.8305424 Z" id="Fill-4" fill="currentColor" fill-rule="nonzero" mask="url(#mask-3)"></path>
                <path d="M9.06043794,17.3100124 C10.2587244,17.3100124 11.7144797,16.9745665 12.3518544,16.4344394 C11.7095244,15.8567347 10.9896991,14.4700782 10.1301621,14.2004276 C9.950395,14.2389688 9.59684853,14.3801947 9.17950265,14.3800571 C6.59201324,14.3770976 5.68739676,12.5054418 5.73867029,9.78402176 C5.79324735,6.88324765 7.60241147,5.50388647 9.31419029,5.50388647 C11.4888762,5.50388647 13.0186168,6.93410824 12.9800756,10.2465847 C12.9737438,10.7854729 12.9124221,11.2123853 12.7831026,11.5320706 C12.4824815,10.9319294 11.4786903,10.3880859 11.143795,10.3328894 C10.8090374,10.2778994 10.4114438,10.4224288 10.4114438,11.1692329 C10.4114438,11.9153488 10.4188768,13.2247853 10.4188768,13.2247853 C11.3433144,13.7060682 11.5897715,14.0799176 12.1029197,14.6447524 C13.0431179,15.6799959 14.9279879,18.6597106 18.0112821,18.5771224 C18.0112821,18.5771224 18.0537462,17.8592929 18.0534709,17.5014794 C18.0533332,16.9750482 17.8637244,16.6382947 17.8637244,16.6382947 C19.3169332,17.1223994 20.5384821,17.0805547 21.6614068,16.8790394 C22.4198421,16.7432506 23.3811691,16.3133788 23.3815821,16.3014035 C23.4017474,15.7356741 23.4929385,14.5027694 22.857835,13.6941618 C22.8459285,13.6789518 22.1205974,13.9170812 21.7570026,13.9819129 C21.3932703,14.0472953 20.7021444,14.1954035 20.2226509,14.1954035 C17.5345415,14.1954035 16.1678438,12.8115688 16.2060409,10.07721 C16.2445821,7.39474412 17.2736315,5.46988765 20.2015221,5.58207 C20.6813597,5.60017059 21.1280932,5.69156824 21.4786115,5.75653765 C21.829405,5.82164471 22.6797885,6.09425471 22.6863268,6.08737235 C23.1593509,5.60244176 23.5146179,4.08467647 23.3580444,3.44179588 C23.3496479,3.40759059 22.1415885,3.04957059 21.6201815,2.94365118 C21.0746174,2.83305176 20.3491485,2.71433118 19.7261579,2.71433118 C18.6742591,2.71433118 17.6352991,2.94385765 16.8109309,3.30738353 C16.0958544,3.62280176 15.4328085,4.15233 14.9063774,4.68234 C15.0337009,3.19003941 16.236805,3.22692882 16.7996438,2.05348765 C17.4924903,0.6084 16.3494691,0.0144529412 16.3494691,0.0144529412 C16.2184979,0.361048235 15.9553168,0.51129 15.6733468,0.610327059 C14.2376191,1.11810706 14.2804274,2.57558294 14.3573032,3.14970882 C14.1351409,2.33008941 13.0681009,0.0600141176 13.0681009,0.0600141176 C13.0681009,0.0600141176 12.7253597,0.0645564706 12.4515797,0.295941176 C12.1780062,0.527325882 12.2701609,0.802482353 12.2701609,0.802482353 C13.0734691,1.61198471 13.8325926,3.31612412 14.1943291,4.45019824 C13.0588097,3.15838059 11.5400809,2.50455706 9.56697912,2.50455706 C5.68092735,2.50455706 2.49192029,5.43988059 2.49192029,10.0870518 C2.49192029,14.5637471 4.64664735,17.3100124 9.06043794,17.3100124" id="Fill-5" fill="currentColor" fill-rule="nonzero" mask="url(#mask-3)"></path>
            </g>
        </g>
    </g>
</svg>
