<svg width="36" height="39" viewBox="0 0 36 39" xmlns="http://www.w3.org/2000/svg">
  <g fill="none" fill-rule="evenodd">
    <g transform="translate(.75)">
      <path d="M19.610664.1c4.9170434-.0690323 9.6807513 1.7108146 13.3478873 4.9871227l1.5156942 1.4179075-6.0627767 6.0627766-1.3690141-1.1734406c-2.0680225-1.7699602-4.7100043-2.7259404-7.4317907-2.6891348-6.4050302 0-10.854326 4.4004024-10.854326 10.7076459 0 6.3072434 4.5959759 10.9032193 10.854326 10.9032193 2.7157093.0365065 5.3476957-.9395944 7.3828974-2.7380282l1.3690141-1.222334 6.1605633 6.0627767-1.4668008 1.3690141c-3.6775122 3.3344397-8.4819896 5.1514057-13.445674 5.0849094C8.5607646 38.8724346.2 30.51167.2 19.3639839.2 8.2162978 8.3651911.1 19.610664.1zm-.2933602 12.8589537c3.5914066 0 6.5028169 2.9114103 6.5028169 6.5028169s-2.9114103 6.5028169-6.5028169 6.5028169-6.5028169-2.9114103-6.5028169-6.5028169 2.9114103-6.5028169 6.5028169-6.5028169z" fill="#17313B" fill-rule="nonzero"/>
    </g>
  </g>
</svg>
