<svg width="118" height="29" viewBox="0 0 118 29" xmlns="http://www.w3.org/2000/svg">
  <g fill="currentColor" fill-rule="evenodd">
    <path d="M0 14.432663l7.109 12.127L0 26.5599999V14.432663zm4.351-12.832l13.1125016 22.3683403c-.1637775.1928744-.3400618.3790723-.5288531.5585935-1.1245756 1.0693567-2.4534287 1.7167288-3.986559 1.9421163L0 4.379663v-2.779h4.351zm6.612635 0c2.0355728 0 3.7488466.6596396 5.1398213 1.9789189 1.3909748 1.3192792 2.0864621 3.001063 2.0864621 5.0453516 0 1.6343414-.4661413 3.0163043-1.3984239 4.1458888L10.243 1.600663z"/>
    <path d="M39.267072 21.368c2.59584 0 4.372992-1.537536 4.372992-3.833856 0-1.477632-.79872-2.735616-2.076672-3.414528 1.078272-.738816 1.637376-1.757184 1.637376-3.035136 0-2.216448-1.677312-3.69408-4.213248-3.69408h-6.369792V21.368h6.649344zM38.1888 13.08128h-2.29632V9.926336h2.29632c1.138176 0 1.817088.619008 1.817088 1.577472s-.69888 1.577472-1.817088 1.577472zm.19968 5.750784h-2.496v-3.29472h2.496c1.238016 0 1.956864.619008 1.956864 1.637376 0 1.038336-.718848 1.657344-1.956864 1.657344zm12.340224 2.79552c3.414528 0 5.730816-2.176512 5.730816-5.411328 0-3.234816-2.316288-5.411328-5.730816-5.411328-3.434496 0-5.750784 2.176512-5.750784 5.411328 0 3.234816 2.316288 5.411328 5.750784 5.411328zm0-2.79552c-1.4976 0-2.535936-1.038336-2.535936-2.615808 0-1.557504 1.038336-2.615808 2.535936-2.615808 1.477632 0 2.515968 1.058304 2.515968 2.615808 0 1.577472-1.038336 2.615808-2.515968 2.615808zM61.671168 21.368v-5.371392c0-1.357824.738816-2.216448 2.016768-2.216448 1.158144 0 1.717248.718848 1.717248 2.036736V21.368h3.254784v-6.429696c0-2.356224-1.457664-4.033536-3.833856-4.033536-1.417728 0-2.476032.519168-3.39456 1.577472l-.039936-1.417728h-2.975232V21.368h3.254784zm13.67808.239616c1.517568 0 2.755584-.579072 3.59424-1.617408l.039936 1.377792h2.975232V6.59168H78.72384v5.69088c-.838656-.918528-2.016768-1.437696-3.374592-1.437696-2.79552 0-4.832256 2.19648-4.832256 5.371392s2.016768 5.39136 4.832256 5.39136zm.89856-2.775552c-1.477632 0-2.515968-1.058304-2.515968-2.615808s1.038336-2.615808 2.515968-2.615808 2.515968 1.058304 2.515968 2.615808-1.038336 2.615808-2.515968 2.615808zM87.789312 21.368v-4.4928c0-1.757184.69888-2.89536 2.376192-2.89536.39936 0 .818688.059904 1.277952.19968l.718848-3.015168c-.519168-.179712-.9984-.239616-1.457664-.239616-1.417728 0-2.476032.658944-3.154944 1.537536l-.039936-1.39776h-2.975232V21.368h3.254784zm10.902528.259584c3.414528 0 5.730816-2.176512 5.730816-5.411328 0-3.234816-2.316288-5.411328-5.730816-5.411328-3.434496 0-5.750784 2.176512-5.750784 5.411328 0 3.234816 2.316288 5.411328 5.750784 5.411328zm0-2.79552c-1.4976 0-2.535936-1.038336-2.535936-2.615808 0-1.557504 1.038336-2.615808 2.535936-2.615808 1.477632 0 2.515968 1.058304 2.515968 2.615808 0 1.577472-1.038336 2.615808-2.515968 2.615808zm9.564672 7.228416c2.09664 0 3.4944-.958464 4.253184-3.015168l4.333056-11.9808h-3.454464l-1.477632 4.59264-.619008 2.176512-.738816-2.176512-1.677312-4.59264h-3.534336l4.512768 10.78272c-.39936.978432-1.018368 1.357824-1.936896 1.357824-.419328 0-.778752-.079872-1.138176-.179712l-.59904 2.69568c.658944.219648 1.357824.339456 2.076672.339456z" fill-rule="nonzero"/>
  </g>
</svg>
