<svg width="80px" height="22px" viewBox="0 0 80 22" version="1.1" xmlns="http://www.w3.org/2000/svg" xmlns:xlink="http://www.w3.org/1999/xlink">
    <g id="🥳-Design" stroke="none" stroke-width="1" fill="none" fill-rule="evenodd">
        <g id="Projects'-logo/iFATIH" transform="translate(0.000000, -1.000000)" fill="currentColor">
            <path d="M3.80892857,4.3721652 C3.9645,4.3721652 4.09885714,4.31272924 4.212,4.19385733 C4.32514286,4.07498542 4.38171429,3.93382502 4.38171429,3.77037613 L4.38171429,1.60178907 C4.38171429,1.43834019 4.32514286,1.29717979 4.212,1.17830787 C4.09885714,1.05943596 3.9645,1 3.80892857,1 L1.13592857,1 C0.980357143,1 0.846,1.05943596 0.732857143,1.17830787 C0.619714286,1.29717979 0.563142857,1.43834019 0.563142857,1.60178907 L0.563142857,3.77037613 C0.563142857,3.93382502 0.619714286,4.07498542 0.732857143,4.19385733 C0.846,4.31272924 0.980357143,4.3721652 1.13592857,4.3721652 L3.80892857,4.3721652 Z M3.80892857,23 C3.9645,23 4.09885714,22.9434286 4.212,22.8302857 C4.32514286,22.7171429 4.38171429,22.5827857 4.38171429,22.4272143 L4.38171429,8.75537903 C4.38171429,8.5998076 4.32514286,8.46545046 4.212,8.3523076 C4.09885714,8.23916474 3.9645,8.18259332 3.80892857,8.18259332 L1.13592857,8.18259332 C0.980357143,8.18259332 0.846,8.23916474 0.732857143,8.3523076 C0.619714286,8.46545046 0.563142857,8.5998076 0.563142857,8.75537903 L0.563142857,22.4272143 C0.563142857,22.5827857 0.619714286,22.7171429 0.732857143,22.8302857 C0.846,22.9434286 0.980357143,23 1.13592857,23 L3.80892857,23 Z M13.0418571,23 C13.1974286,23 13.3317857,22.9434286 13.4449286,22.8302857 C13.5580714,22.7171429 13.6146429,22.5827857 13.6146429,22.4272143 L13.6146429,22.4272143 L13.6146429,17.8449286 L19.5334286,17.8449286 C19.689,17.8449286 19.8233571,17.7883571 19.9365,17.6752143 C20.0496429,17.5620714 20.1062143,17.4277143 20.1062143,17.2721429 L20.1062143,17.2721429 L20.1062143,15.0234286 C20.1062143,14.8678571 20.0496429,14.7335 19.9365,14.6203571 C19.8233571,14.5072143 19.689,14.4506429 19.5334286,14.4506429 L19.5334286,14.4506429 L13.6146429,14.4506429 L13.6146429,11.5442857 L19.9577143,11.5442857 C20.1132857,11.5442857 20.2476429,11.4877143 20.3607857,11.3745714 C20.4739286,11.2614286 20.5305,11.1270714 20.5305,10.9715 L20.5305,10.9715 L20.5305,8.72278571 C20.5305,8.56721429 20.4739286,8.43285714 20.3607857,8.31971429 C20.2476429,8.20657143 20.1132857,8.15 19.9577143,8.15 L19.9577143,8.15 L10.2627857,8.15 C10.1072143,8.15 9.97285714,8.20657143 9.85971429,8.31971429 C9.74657143,8.43285714 9.69,8.56721429 9.69,8.72278571 L9.69,8.72278571 L9.69,22.4272143 C9.69,22.5827857 9.74657143,22.7171429 9.85971429,22.8302857 C9.97285714,22.9434286 10.1072143,23 10.2627857,23 L10.2627857,23 L13.0418571,23 Z M26.4752143,23 C26.7580714,23 26.9596071,22.9398929 27.0798214,22.8196786 C27.2000357,22.6994643 27.2742857,22.5827857 27.3025714,22.4696429 L27.3025714,22.4696429 L27.8965714,20.7088571 L33.5395714,20.7088571 L34.1335714,22.4696429 C34.1618571,22.5827857 34.2361071,22.6994643 34.3563214,22.8196786 C34.4765357,22.9398929 34.6780714,23 34.9609286,23 L34.9609286,23 L37.6339286,23 C37.7612143,23 37.8708214,22.9540357 37.96275,22.8621071 C38.0546786,22.7701786 38.1006429,22.6605714 38.1006429,22.5332857 C38.1006429,22.4625714 38.0723571,22.3565 38.0157857,22.2150714 L38.0157857,22.2150714 L33.3910714,8.85007143 C33.3345,8.6945 33.2319643,8.53892857 33.0834643,8.38335714 C32.9349643,8.22778571 32.7192857,8.15 32.4364286,8.15 L32.4364286,8.15 L28.9997143,8.15 C28.7168571,8.15 28.5011786,8.22778571 28.3526786,8.38335714 C28.2041786,8.53892857 28.1016429,8.6945 28.0450714,8.85007143 L28.0450714,8.85007143 L23.4203571,22.2150714 C23.3637857,22.3565 23.3355,22.4625714 23.3355,22.5332857 C23.3355,22.6605714 23.3814643,22.7701786 23.4733929,22.8621071 C23.5653214,22.9540357 23.6749286,23 23.8022143,23 L23.8022143,23 L26.4752143,23 Z M32.4364286,17.4206429 L28.9997143,17.4206429 L30.7180714,12.3292143 L32.4364286,17.4206429 Z M47.3950393,22.56 C47.5443879,22.56 47.6733707,22.5056914 47.7819879,22.3970743 C47.890605,22.2884571 47.9449136,22.1594743 47.9449136,22.0101257 L47.9449136,4.69851429 L78.5064094,4.69851429 C78.655758,4.69851429 78.7847409,4.64420571 78.893358,4.53558857 C79.0019751,4.42697143 79.0562837,4.29798857 79.0562837,4.14864 L79.0562837,1.98987429 C79.0562837,1.84052571 79.0019751,1.71154286 78.893358,1.60292571 C78.7847409,1.49430857 78.655758,1.44 78.5064094,1.44 L10.3490139,1.44 C10.1996653,1.44 10.0706824,1.49430857 9.9620653,1.60292571 C9.85344816,1.71154286 9.79913958,1.84052571 9.79913958,1.98987429 L9.79913958,4.14864 C9.79913958,4.29798857 9.85344816,4.42697143 9.9620653,4.53558857 C10.0706824,4.64420571 10.1996653,4.69851429 10.3490139,4.69851429 L44.1772564,4.69851429 L44.1772564,22.0101257 C44.1772564,22.1594743 44.231565,22.2884571 44.3401821,22.3970743 C44.4487993,22.5056914 44.5777821,22.56 44.7271307,22.56 L47.3950393,22.56 Z M60.2577857,23 C60.4133571,23 60.5477143,22.9434286 60.6608571,22.8302857 C60.774,22.7171429 60.8305714,22.5827857 60.8305714,22.4272143 L60.8305714,22.4272143 L60.8305714,8.72278571 C60.8305714,8.56721429 60.774,8.43285714 60.6608571,8.31971429 C60.5477143,8.20657143 60.4133571,8.15 60.2577857,8.15 L60.2577857,8.15 L57.4787143,8.15 C57.3231429,8.15 57.1887857,8.20657143 57.0756429,8.31971429 C56.9625,8.43285714 56.9059286,8.56721429 56.9059286,8.72278571 L56.9059286,8.72278571 L56.9059286,22.4272143 C56.9059286,22.5827857 56.9625,22.7171429 57.0756429,22.8302857 C57.1887857,22.9434286 57.3231429,23 57.4787143,23 L57.4787143,23 L60.2577857,23 Z M69.7452857,23 C69.9008571,23 70.0352143,22.9434286 70.1483571,22.8302857 C70.2615,22.7171429 70.3180714,22.5827857 70.3180714,22.4272143 L70.3180714,22.4272143 L70.3180714,17.2297143 L75.0276429,17.2297143 L75.0276429,22.4272143 C75.0276429,22.5827857 75.0842143,22.7171429 75.1973571,22.8302857 C75.3105,22.9434286 75.4448571,23 75.6004286,23 L75.6004286,23 L78.3795,23 C78.5350714,23 78.6694286,22.9434286 78.7825714,22.8302857 C78.8957143,22.7171429 78.9522857,22.5827857 78.9522857,22.4272143 L78.9522857,22.4272143 L78.9522857,8.72278571 C78.9522857,8.56721429 78.8957143,8.43285714 78.7825714,8.31971429 C78.6694286,8.20657143 78.5350714,8.15 78.3795,8.15 L78.3795,8.15 L75.6004286,8.15 C75.4448571,8.15 75.3105,8.20657143 75.1973571,8.31971429 C75.0842143,8.43285714 75.0276429,8.56721429 75.0276429,8.72278571 L75.0276429,8.72278571 L75.0276429,13.8354286 L70.3180714,13.8354286 L70.3180714,8.72278571 C70.3180714,8.56721429 70.2615,8.43285714 70.1483571,8.31971429 C70.0352143,8.20657143 69.9008571,8.15 69.7452857,8.15 L69.7452857,8.15 L66.9662143,8.15 C66.8106429,8.15 66.6762857,8.20657143 66.5631429,8.31971429 C66.45,8.43285714 66.3934286,8.56721429 66.3934286,8.72278571 L66.3934286,8.72278571 L66.3934286,22.4272143 C66.3934286,22.5969286 66.45,22.7348214 66.5631429,22.8408929 C66.6762857,22.9469643 66.8106429,23 66.9662143,23 L66.9662143,23 L69.7452857,23 Z" id="iFATIH"></path>
        </g>
    </g>
</svg>
